Coordinates
version=1
nRows=16
nColumns=40
inDegrees=yes

Units are S.I. units (second, meters, Newtons, ...)
Angles are in degrees.

endheader
time	pelvis_tilt	pelvis_list	pelvis_rotation	pelvis_tx	pelvis_ty	pelvis_tz	hip_flexion_r	hip_adduction_r	hip_rotation_r	knee_angle_r	knee_angle_r_beta	ankle_angle_r	subtalar_angle_r	mtp_angle_r	hip_flexion_l	hip_adduction_l	hip_rotation_l	knee_angle_l	knee_angle_l_beta	ankle_angle_l	subtalar_angle_l	mtp_angle_l	lumbar_extension	lumbar_bending	lumbar_rotation	arm_flex_r	arm_add_r	arm_rot_r	elbow_flex_r	pro_sup_r	wrist_flex_r	wrist_dev_r	arm_flex_l	arm_add_l	arm_rot_l	elbow_flex_l	pro_sup_l	wrist_flex_l	wrist_dev_l
      1.11000000	      0.26052210	      2.01186419	      3.33449614	      0.00956471	      0.96041103	     -0.98829243	     -1.72925450	     -2.00088297	    -17.68226389	    -15.05309387	     -0.26272605	      9.34506635	     -0.59554890	     -7.42578402	     23.34501726	      3.36550904	     18.38110203	    -20.96766431	     -0.36595478	     -0.31614911	     11.37854439	     13.57648286	     -5.76394617	     -4.06353487	      5.16236096	      9.90644163	    -16.62591661	     -9.48056803	     25.75832300	     89.95437384	      0.00000000	      0.00000000	    -10.09046035	     12.21444157	     10.59387403	     14.12533823	     89.95437384	      0.00000000	      0.00000000
      1.12000000	      0.58050758	      2.29329579	      2.98243025	      0.01868005	      0.95990154	     -0.98897767	     -2.75634407	     -2.36994279	    -17.66293421	    -14.95514447	     -0.26101651	      9.74660058	     -0.23412342	     -8.06017508	     23.01362899	      3.10458899	     19.27513627	    -18.65383314	     -0.32557081	     -1.35854150	      9.34914553	     13.33206370	     -6.13968089	     -4.37523685	      5.37767303	     10.41100425	    -16.89189860	     -8.83068654	     26.35240220	     89.95437384	      0.00000000	      0.00000000	    -10.52235414	     12.06619266	     11.38976524	     13.71621731	     89.95437384	      0.00000000	      0.00000000
      1.13000000	      0.59233027	      2.26005328	      2.68067129	      0.02743945	      0.95875063	     -0.98935064	     -3.34185056	     -2.40155288	    -17.72227607	    -14.97882719	     -0.26142985	     10.07268571	      0.19143623	     -8.69603010	     23.22404105	      3.17359858	     19.70624927	    -16.85547692	     -0.29418357	     -1.93427961	      7.34161025	     12.92666120	     -6.18086798	     -4.39431976	      5.65382153	     10.88567223	    -17.10335320	     -8.41782531	     26.92285051	     89.95437384	      0.00000000	      0.00000000	    -10.93820874	     11.98279281	     11.70698378	     13.37703609	     89.95437384	      0.00000000	      0.00000000
      1.14000000	      0.39639486	      2.08719019	      2.42848409	      0.03606831	      0.95714679	     -0.98996406	     -3.65928762	     -2.28524580	    -17.62290624	    -15.04291617	     -0.26254842	     10.35547038	      0.34070375	     -8.89419001	     23.68440322	      3.27614046	     19.43047336	    -15.28638227	     -0.26679770	     -2.01382679	      6.02317536	     12.75301985	     -5.96872401	     -4.24767405	      5.90680559	     11.38235493	    -17.28230914	     -8.28458818	     27.30279439	     89.95437384	      0.00000000	      0.00000000	    -11.39166072	     11.88241623	     11.79924912	     13.12824763	     89.95437384	      0.00000000	      0.00000000
      1.15000000	      0.87119977	      2.31208868	      2.09530236	      0.04585835	      0.95660497	     -0.99089467	     -4.88531963	     -2.69116452	    -18.07532467	    -14.97621721	     -0.26138430	     10.67165830	      1.25533932	     -9.84323101	     23.19576463	      3.18242906	     20.69124092	    -13.79759691	     -0.24081349	     -2.52395235	      3.10140416	     12.14468233	     -6.43887482	     -4.49267421	      6.10013703	     11.77493883	    -17.46891377	     -7.80633668	     27.84841317	     89.95437384	      0.00000000	      0.00000000	    -11.82405942	     11.75414362	     12.23105410	     12.81920766	     89.95437384	      0.00000000	      0.00000000
      1.16000000	      0.95744565	      2.34998513	      1.67965062	      0.05513841	      0.95535957	     -0.99148233	     -5.52481357	     -2.90334655	    -18.24156659	    -15.09225193	     -0.26340949	     11.00434856	      1.92941845	    -10.86338610	     23.20827987	      3.24305820	     21.23929488	    -12.57662291	     -0.21950348	     -2.79198506	      0.89840499	     11.46230303	     -6.46876908	     -4.58260778	      6.46502693	     12.17818740	    -17.60841202	     -7.51529209	     28.21331492	     89.95437384	      0.00000000	      0.00000000	    -12.22793291	     11.71283586	     11.96579714	     12.54266240	     89.95437384	      0.00000000	      0.00000000
      1.17000000	      0.81287532	      2.21199474	      1.43675778	      0.06431027	      0.95369817	     -0.99230077	     -5.93673507	     -2.85725163	    -18.34008758	    -15.15919319	     -0.26457783	     11.22672230	      1.90238687	    -10.91850739	     23.64721991	      3.35879291	     21.17049331	    -11.84897142	     -0.20680356	     -2.55578941	      0.52795514	     11.34464630	     -6.25505563	     -4.47811832	      6.61191154	     12.59221134	    -17.62981422	     -7.55749712	     28.52718024	     89.95437384	      0.00000000	      0.00000000	    -12.63911732	     11.62671615	     11.90592235	     12.26143127	     89.95437384	      0.00000000	      0.00000000
      1.18000000	      1.04601773	      2.41763849	      0.94463914	      0.07390591	      0.95273577	     -0.99312663	     -6.74703436	     -3.27040853	    -18.15439052	    -15.33109733	     -0.26757813	     11.65072377	      2.33441477	    -11.34895397	     23.16944944	      3.11269709	     20.78522872	    -10.50760914	     -0.18339238	     -2.73703224	     -0.97561069	     11.17388273	     -6.43623431	     -4.74406663	      7.02652856	     12.88889442	    -17.65676393	     -7.62542301	     28.95801054	     89.95437384	      0.00000000	      0.00000000	    -12.92093512	     11.55552257	     11.67633563	     11.94778357	     89.95437384	      0.00000000	      0.00000000
      1.19000000	      1.42752483	      2.70532141	      0.48415939	      0.08398949	      0.95200556	     -0.99415961	     -7.75829916	     -3.85260089	    -18.47498963	    -15.46018486	     -0.26983113	     11.92773119	      3.22857499	    -11.98277359	     22.59418147	      2.82134816	     20.81707589	     -9.62038836	     -0.16790745	     -2.87599251	     -1.80075128	     10.86094732	     -6.75355447	     -5.09843810	      7.37587596	     13.07788534	    -17.70576221	     -7.58258848	     29.47200120	     89.95437384	      0.00000000	      0.00000000	    -13.31446484	     11.53748295	     11.19963619	     11.84072649	     89.95437384	      0.00000000	      0.00000000
      1.20000000	      1.39279596	      2.65006044	      0.14120958	      0.09374381	      0.95056072	     -0.99503139	     -8.25598126	     -3.97387950	    -18.38234472	    -15.66674714	     -0.27343632	     12.08818513	      3.38057834	    -12.07823273	     22.67513160	      2.90552497	     20.34134976	     -9.31448173	     -0.16256837	     -2.63903549	     -2.06314052	     10.66850457	     -6.58107340	     -5.10720821	      7.61123532	     13.35205112	    -17.63568805	     -7.58190293	     29.63679468	     89.95437384	      0.00000000	      0.00000000	    -13.60913987	     11.49348430	     10.97801050	     11.54529427	     89.95437384	      0.00000000	      0.00000000
      1.21000000	      1.28958932	      2.65238115	     -0.14863182	      0.10343279	      0.94890364	     -0.99622141	     -8.56704354	     -4.19180988	    -18.22120298	    -16.07090274	     -0.28049017	     11.93518835	      3.27769458	    -11.90919017	     23.00168869	      2.98226478	     19.95006721	     -9.60473068	     -0.16763417	     -2.64384506	     -2.03502921	     10.48009612	     -6.35694953	     -5.15895925	      7.72264906	     13.52027097	    -17.57058465	     -7.58516550	     30.04571424	     89.95437384	      0.00000000	      0.00000000	    -14.06804675	     11.41239465	     10.90169837	     11.61825818	     89.95437384	      0.00000000	      0.00000000
      1.22000000	      1.77563024	      3.22476343	     -0.56890539	      0.11409031	      0.94843389	     -0.99794615	     -9.59904731	     -5.34551950	    -19.07107439	    -16.57055811	     -0.28921080	     12.57863101	      5.58399265	    -13.95438536	     21.91637951	      2.11625559	     18.63082264	     -8.74519508	     -0.15263245	     -2.37917694	     -0.76776845	      9.43384899	     -6.65131047	     -5.79032014	      8.12182113	     13.50574762	    -17.44118618	     -8.09077846	     30.32621099	     89.95437384	      0.00000000	      0.00000000	    -14.20494420	     11.54071868	      9.16225728	     11.29440216	     89.95437384	      0.00000000	      0.00000000
      1.23000000	      1.63989879	      3.21029265	     -0.82409390	      0.12419187	      0.94690493	     -0.99958924	     -9.87306787	     -5.59914681	    -18.82630444	    -17.02937178	     -0.29721861	     12.36177794	      5.37333827	    -13.71446888	     22.12732421	      2.16698929	     18.22398128	     -9.22984796	     -0.16109124	     -2.41888302	     -0.74838937	      9.25025501	     -6.34176096	     -5.79094885	      8.21394753	     13.51436382	    -17.36727223	     -8.07939774	     30.66839382	     89.95437384	      0.00000000	      0.00000000	    -14.61179416	     11.44016380	      9.10503526	     11.43651168	     89.95437384	      0.00000000	      0.00000000
      1.24000000	      1.86338437	      3.35129012	     -1.21890440	      0.13475913	      0.94604002	     -1.00115565	    -10.62739738	     -6.04007338	    -18.49387369	    -17.33030375	     -0.30247086	     12.74525344	      5.34518675	    -13.81967923	     21.74909725	      2.03134047	     17.66521042	     -9.73108647	     -0.16983950	     -1.84872428	     -0.62787729	      8.94969053	     -6.35672795	     -5.97922222	      8.51602463	     13.52557900	    -17.22426469	     -8.30178925	     30.74577353	     89.95437384	      0.00000000	      0.00000000	    -14.49543922	     11.37231750	      8.83791902	     10.74148293	     89.95437384	      0.00000000	      0.00000000
      1.25000000	      1.71574986	      3.33272419	     -1.42973556	      0.14531071	      0.94455017	     -1.00327761	    -10.88121719	     -6.32603245	    -18.18987601	    -17.86436410	     -0.31179197	     12.43943276	      5.15615187	    -13.55068217	     21.80713971	      2.02558309	     17.24313610	    -10.31912849	     -0.18010277	     -1.91442481	     -0.57426790	      8.76015295	     -5.95793598	     -5.93268958	      8.55601628	     13.38763279	    -17.13047725	     -8.30901195	     31.06543155	     89.95437384	      0.00000000	      0.00000000	    -14.88283474	     11.24258499	      8.78132575	     10.96729479	     89.95437384	      0.00000000	      0.00000000
      1.26000000	      1.99306667	      3.87317220	     -1.79844872	      0.15628943	      0.94383685	     -1.00597331	    -11.54556938	     -7.51110197	    -18.61329893	    -18.56391488	     -0.32400144	     12.33732715	      6.54229406	    -15.32741303	     21.07767766	      1.20079802	     16.26495497	    -10.57038209	     -0.18448797	     -1.46514063	      1.13261545	      7.91757442	     -5.97358466	     -6.47368742	      8.91504952	     13.05259071	    -16.98579669	     -8.90992918	     31.38099111	     89.95437384	      0.00000000	      0.00000000	    -14.78994751	     11.24628032	      7.62980930	     10.57397504	     89.95437384	      0.00000000	      0.00000000
